<?xml version="1.0" encoding="UTF-8"?>
<svg data-bbox="0 -0.003 624.48 143.843" viewBox="0 0 624.48 143.84" xmlns="http://www.w3.org/2000/svg" data-type="color">
    <g>
        <g>
            <path fill="#2e0452" d="M68.1 51.34h19.79l6-13.74 15.38 1q-5.43 11.52-10.81 23l-36.05 82.24c32-39.59 67.68-82.76 99.72-122.34H83.28" data-color="1"/>
            <path fill="#611f9b" d="M72.11 10.48h93.58V0H31.55Q15.77 37.13 0 74.26h78.86l5-11.28-34.57-2.3q5.43-11.31 10.81-23.06 6.23-13.72 12.01-27.14" data-color="2"/>
            <path fill="#2e0452" d="M269.7 15.29h-45.88l-11 30.49h22.89l5.53-15.2h22.89L256.68 51a14.9 14.9 0 0 1-5.58 7.35 15.05 15.05 0 0 1-8.83 2.71h-58l18.55-51a14.88 14.88 0 0 1 5.57-7.35A15.07 15.07 0 0 1 217.21 0h58Z" data-color="1"/>
            <path fill="#2e0452" d="M264.37 61.07 286.57 0h57.82a7.17 7.17 0 0 1 6.21 3.26 7.2 7.2 0 0 1 .89 7L345 28.12a15 15 0 0 1-14.31 10.06H329l11.64 22.89h-22.89l-11.64-22.89h-10.56l-8.29 22.89Zm39-45.78L299.79 25h24.57l3.55-9.67Z" data-color="1"/>
            <path fill="#2e0452" d="M343.1 61.07 365.3.1h22.89l-22.2 61Z" data-color="1"/>
            <path fill="#2e0452" d="m468.3 0-5.52 15.29H416.9L413.35 25h38.18l-4.73 13.18h-38.19l-8.38 22.89h-22.89L399.54 0Z" data-color="1"/>
            <path fill="#2e0452" d="M540.23 15.29h-45.88l-2.76 7.9h38.18l-5 12.72h-38.21l-3.26 9.87h45.78l-5.53 15.29h-68.76L477 0h68.76Z" data-color="1"/>
            <path fill="#2e0452" d="M533.52 61.07 555.72 0h23l11.74 30.58L601.6 0h22.88l-22.19 61.07h-23l-11.73-30.49-11.15 30.49Z" data-color="1"/>
            <path fill="#2e0452" d="M185.27 89.54c0-5.48 4.22-12.14 12.89-12.14 4.34 0 7.41 2.29 8.24 5.85l-6 2.62a3 3 0 0 0-3.13-2.44c-3 0-5 2.75-5 5.51a3.12 3.12 0 0 0 3.16 3.45 4.94 4.94 0 0 0 3.91-2.1L204 94a10.94 10.94 0 0 1-9.22 4.39c-5.61-.03-9.51-3.45-9.51-8.85" data-color="1"/>
            <path fill="#2e0452" d="M226.76 77.83h6.72l-3.85 14.36h9.16l-1.55 5.74h-15.88Z" data-color="1"/>
            <path fill="#2e0452" d="M256.31 89.23a11.87 11.87 0 0 1 11.83-11.81c5.91 0 10 4 10 9.11a11.86 11.86 0 0 1-11.83 11.8c-5.93 0-10-3.96-10-9.1m15.07-2.1a3.52 3.52 0 0 0-3.7-3.79c-2.82 0-4.62 2.76-4.62 5.28a3.51 3.51 0 0 0 3.7 3.79c2.81 0 4.62-2.75 4.62-5.28" data-color="1"/>
            <path fill="#2e0452" d="M301.71 83.51h-5.92l1.52-5.68h18.55l-1.52 5.68h-5.91l-3.88 14.42h-6.72Z" data-color="1"/>
            <path fill="#2e0452" d="M334.56 77.83h6.72l-1.93 7.09h6.15l1.92-7.09h6.72l-5.4 20.1H342l2-7.21h-6.2l-1.92 7.21h-6.72Z" data-color="1"/>
            <path fill="#2e0452" d="m392.65 94.68 3.85-4.59a10.77 10.77 0 0 0 6.77 2.84c.86 0 1.47-.31 1.47-.89s-.38-.83-3.31-1.92c-3.73-1.38-5.48-2.7-5.48-5.66 0-3.88 3.56-7 9.05-7a13.82 13.82 0 0 1 9 3L410.11 85a9.73 9.73 0 0 0-5.8-2.24c-.87 0-1.47.23-1.47.81s.43.72 3.22 1.75c3.41 1.26 5.6 2.7 5.6 5.77 0 4-3.33 7.21-9.11 7.21a14.68 14.68 0 0 1-9.9-3.62" data-color="1"/>
            <path fill="#2e0452" d="M437 83.51h-6l1.52-5.68h18.55l-1.52 5.68h-5.92l-3.83 14.42h-6.72Z" data-color="1"/>
            <path fill="#2e0452" d="M466.5 91.09a13.3 13.3 0 0 1 .43-3.24l2.7-10h6.84l-2.82 10.45a7 7 0 0 0-.23 1.58c0 1.66 1 2.53 2.76 2.53a3 3 0 0 0 2.15-.84 6 6 0 0 0 1.44-2.93l2.9-10.79h6.83l-3.18 11.83a13 13 0 0 1-3.16 6c-1.9 1.89-4.77 2.64-8 2.64-5.61.01-8.66-2.69-8.66-7.23" data-color="1"/>
            <path fill="#2e0452" d="M508.74 77.83h7.13c3.9 0 6.34 1.06 7.86 2.58a7.9 7.9 0 0 1 2.19 5.89 11 11 0 0 1-3.31 7.92c-2.41 2.42-5.88 3.71-10.54 3.71h-8.73Zm4.08 14.24a6.83 6.83 0 0 0 4.83-1.64 5.13 5.13 0 0 0 1.43-3.43 3.07 3.07 0 0 0-.83-2.33 4.38 4.38 0 0 0-3.25-1h-1.12l-2.24 8.39Z" data-color="1"/>
            <path fill="#2e0452" d="M547.45 77.83h6.72l-5.4 20.1h-6.72Z" data-color="1"/>
            <path fill="#2e0452" d="M570.34 89.23a11.87 11.87 0 0 1 11.83-11.81c5.91 0 10 4 10 9.11a11.86 11.86 0 0 1-11.83 11.8c-5.93 0-10-3.96-10-9.1m15.07-2.1a3.52 3.52 0 0 0-3.7-3.79c-2.82 0-4.63 2.76-4.63 5.28a3.52 3.52 0 0 0 3.71 3.79c2.81 0 4.62-2.75 4.62-5.28" data-color="1"/>
        </g>
    </g>
</svg>
