<?xml version="1.0" encoding="UTF-8"?>
<svg data-bbox="-7.89 13.01 946.53 197.12" viewBox="0 0 947.92 210.72" xmlns:xlink="http://www.w3.org/1999/xlink" xmlns="http://www.w3.org/2000/svg" data-type="ugc">
    <g>
        <path fill="#58595b" d="M227.32 33.41v163.81h-36.15V33.41z"/>
        <path fill="#58595b" d="M612.49 71.89v124.64h-36.15V71.89z"/>
        <path fill="#58595b" d="M314.25 73.86h-47.92l-30.98 34.42v44.19l39.31 44.75h43.89l-57.95-69.14z"/>
        <path d="M381.38 166.81v30.33c15.25-.73 28.96-7.88 38.89-19.06l-19-21.38c-4.99 5.9-12.03 9.72-19.89 10.11" fill="#58595b"/>
        <path d="M381.38 71.93v32.41c10.97.49 20.22 7.61 24.68 17.81h-52.02c3.99-9.13 11.93-15.81 21.41-17.47v-32.8c-30.45 1.7-54.31 29.12-54.31 62.65 0 33.4 24.03 60.69 54.31 62.58v-30.69c-10.77-1.88-19.55-10.24-22.81-21.31h80c10.04-43.92-20.28-71.71-51.26-73.18" fill="#58595b"/>
        <path d="M508.75 167.84v30.33c15.25-.73 28.96-7.89 38.89-19.06l-19-21.38c-4.98 5.9-12.02 9.72-19.89 10.11" fill="#58595b"/>
        <path d="M508.75 72.96v32.41c10.97.49 20.22 7.61 24.68 17.81h-52.02c3.99-9.13 11.93-15.81 21.41-17.47v-32.8c-30.45 1.7-54.32 29.12-54.32 62.65 0 33.4 24.03 60.69 54.31 62.58v-30.68c-10.77-1.88-19.55-10.25-22.81-21.31h80c10.06-43.94-20.27-71.72-51.25-73.19" fill="#58595b"/>
        <path d="M736.75 78.5c-31.48-19.54-66 5.78-66 5.78-30.79-22.76-52.02-7.07-52.02-7.07v34.04s7.45-7.69 16.64-6.89c14.15 1.25 14.92 11.86 14.92 11.86l-.24 80.3h36.53l.22-76.57s.01-17.12 18.95-16.93c18.84.19 19.51 16.64 19.51 16.64l.21 76.86h35.73l.01-79.63s1.83-22.08-24.46-38.39" fill="#58595b"/>
        <path fill="#58595b" d="M846.89 72.04h-73.44v37.68h41.31z"/>
        <path fill="#58595b" d="M879.41 72.04h-23.72l-85.3 96.78-.05 27.7h25.25l83.82-95.03z"/>
        <path fill="#58595b" d="m835.23 159.06-32.57 37.46h77.85l.04-37.46z"/>
        <defs>
            <path id="c6d964f5-3d59-487a-a6e5-28e182a45721" d="m133.04 115.47 42.34-82.12h-25.46l-43.24 82.12 32.03 59.63h-27.89L80 115.47l33.39-65.76-.02-.01 8.32-16.33H43.35l-42.02 82.1 42.53 82.11h25.39L26.71 115.5l30.41-59.66h27.89l-30.95 59.63 39.83 75.97.03-.01 3.13 6.14h78.34z"/>
        </defs>
        <clipPath id="ffefff18-e4b9-4784-996f-0a2ebd8c9d20">
            <use xlink:href="#c6d964f5-3d59-487a-a6e5-28e182a45721" overflow="visible"/>
        </clipPath>
        <linearGradient y2="20.875" x2="87.181" y1="115.496" x1="87.181" gradientUnits="userSpaceOnUse" id="4dc7c87a-5140-4d5d-a401-9b2799982232">
            <stop offset="0" stop-color="#82be41"/>
            <stop offset="1" stop-color="#3bb049"/>
        </linearGradient>
        <path clip-path="url(#ffefff18-e4b9-4784-996f-0a2ebd8c9d20)" fill="url(#4dc7c87a-5140-4d5d-a401-9b2799982232)" d="M182.26 20.87v94.62H-7.89V20.87z"/>
        <linearGradient y2="115.496" x2="88.362" y1="210.121" x1="88.362" gradientUnits="userSpaceOnUse" id="9dec2dbb-3937-455d-b59a-3f32cc96ba3b">
            <stop offset="0" stop-color="#00a9e1"/>
            <stop offset="1" stop-color="#24949a"/>
        </linearGradient>
        <path clip-path="url(#ffefff18-e4b9-4784-996f-0a2ebd8c9d20)" fill="url(#9dec2dbb-3937-455d-b59a-3f32cc96ba3b)" d="M183.44 115.5v94.63H-6.71V115.5z"/>
        <path d="M897.43 25.46c2.4-.46 5.88-.77 9.51-.77 4.96 0 8.28.82 10.63 2.76 1.89 1.58 2.97 3.99 2.97 6.95 0 4.45-3.02 7.47-6.29 8.59v.15c2.51.92 3.99 3.32 4.81 6.65 1.12 4.29 2.04 8.28 2.71 9.61h-6.44c-.51-1.02-1.38-3.84-2.3-8.13-1.02-4.5-2.61-5.93-6.19-6.03h-3.17V59.4h-6.24zm6.24 15.18h3.73c4.24 0 6.85-2.25 6.85-5.67 0-3.73-2.61-5.52-6.7-5.52-2 0-3.27.15-3.88.31z" fill="#58595b"/>
        <path d="M909.6 71.1c-16.02 0-29.04-13.03-29.04-29.05 0-16.01 13.03-29.04 29.04-29.04 16.02 0 29.04 13.03 29.04 29.04 0 16.02-13.03 29.05-29.04 29.05m0-54.14c-13.83 0-25.08 11.25-25.08 25.08s11.25 25.09 25.08 25.09 25.08-11.25 25.08-25.09c0-13.82-11.25-25.08-25.08-25.08" fill="#58595b"/>
    </g>
</svg>
